<svg width="20" height="21" viewBox="0 0 20 21" fill="none" xmlns="http://www.w3.org/2000/svg">
<path d="M8.95827 4.4791L5.2666 2.6541C3.27494 1.6791 1.6416 2.67077 1.6416 4.8541V17.2208C1.6416 18.1708 2.43327 18.9458 3.39993 18.9458H9.58327C10.0416 18.9458 10.4166 18.5708 10.4166 18.1124V6.78743C10.4166 5.91243 9.75827 4.87077 8.95827 4.4791ZM7.47493 12.0708H4.58327C4.2416 12.0708 3.95827 11.7874 3.95827 11.4458C3.95827 11.1041 4.2416 10.8208 4.58327 10.8208H7.47493C7.8166 10.8208 8.09993 11.1041 8.09993 11.4458C8.09993 11.7874 7.82493 12.0708 7.47493 12.0708ZM7.47493 8.73743H4.58327C4.2416 8.73743 3.95827 8.4541 3.95827 8.11243C3.95827 7.77077 4.2416 7.48743 4.58327 7.48743H7.47493C7.8166 7.48743 8.09993 7.77077 8.09993 8.11243C8.09993 8.4541 7.82493 8.73743 7.47493 8.73743Z" fill="#BCBCBC"/>
<path d="M18.3332 15.6455V16.8622C18.3332 18.0122 17.3998 18.9455 16.2498 18.9455H12.4748C12.0248 18.9455 11.6665 18.5872 11.6665 18.1372V16.3372C12.5582 16.4455 13.4998 16.1872 14.1748 15.6455C14.7415 16.1038 15.4665 16.3788 16.2582 16.3788C17.0332 16.3788 17.7582 16.1038 18.3332 15.6455Z" fill="#BCBCBC"/>
<path d="M18.3332 13.1541V13.1624C18.2665 14.2541 17.3748 15.1291 16.2582 15.1291C15.0998 15.1291 14.1748 14.1874 14.1748 13.0457C14.1748 14.3207 12.9998 15.3457 11.6665 15.0874V10.6124C11.6665 10.0791 12.1582 9.67907 12.6832 9.79574L14.1748 10.1291L14.5748 10.2207L16.2748 10.6041C16.6832 10.6874 17.0582 10.8291 17.3832 11.0374C17.3832 11.0457 17.3915 11.0457 17.3915 11.0457C17.4748 11.1041 17.5582 11.1707 17.6332 11.2457C18.0165 11.6291 18.2665 12.1874 18.3248 13.0041C18.3248 13.0541 18.3332 13.1041 18.3332 13.1541Z" fill="#BCBCBC"/>
</svg>
