<svg width="21" height="17" viewBox="0 0 21 17" fill="none" xmlns="http://www.w3.org/2000/svg">
<g clip-path="url(#clip0_98_4970)">
<path d="M0 0.625H6.99891V16.375H0V0.625Z" fill="#007A5E"/>
<path d="M6.99902 0.625H14.0012V16.375H6.99902V0.625Z" fill="#CE1126"/>
<path d="M14.001 0.625H20.9999V16.375H14.001V0.625Z" fill="#FCD116"/>
<path d="M10.5003 6.63574L9.91699 8.40907L10.8037 8.71241L10.5003 6.63574Z" fill="#FCD116"/>
<path d="M10.5007 6.63574L11.084 8.40907L10.1973 8.71241L10.5007 6.63574Z" fill="#FCD116"/>
<path d="M12.276 7.92392L10.4092 7.91713L10.3947 8.85413L12.276 7.92392Z" fill="#FCD116"/>
<path d="M12.2758 7.92373L10.7695 9.0265L10.207 8.27697L12.2758 7.92373Z" fill="#FCD116"/>
<path d="M11.5974 10.0099L11.027 8.23234L10.1314 8.50811L11.5974 10.0099Z" fill="#FCD116"/>
<path d="M11.5979 10.0097L10.0836 8.91788L10.6227 8.15131L11.5979 10.0097Z" fill="#FCD116"/>
<path d="M9.40307 10.0136L10.9173 8.92179L10.3783 8.15522L9.40307 10.0136Z" fill="#FCD116"/>
<path d="M9.40357 10.0138L9.97398 8.23624L10.8696 8.51201L9.40357 10.0138Z" fill="#FCD116"/>
<path d="M8.72518 7.92276L10.2315 9.02553L10.7939 8.27599L8.72518 7.92276Z" fill="#FCD116"/>
<path d="M8.72501 7.92295L10.5918 7.91615L10.6063 8.85316L8.72501 7.92295Z" fill="#FCD116"/>
</g>
<defs>
<clipPath id="clip0_98_4970">
<rect y="0.625" width="21" height="15.75" rx="4.375" fill="white"/>
</clipPath>
</defs>
</svg>
