<svg width="20" height="21" viewBox="0 0 20 21" fill="none" xmlns="http://www.w3.org/2000/svg">
<path d="M6.03317 2.27881H4.44984C2.62484 2.27881 1.6665 3.23714 1.6665 5.05381V6.63714C1.6665 8.45381 2.62484 9.41214 4.4415 9.41214H6.02484C7.8415 9.41214 8.79984 8.45381 8.79984 6.63714V5.05381C8.80817 3.23714 7.84984 2.27881 6.03317 2.27881Z" fill="#1E74FF"/>
<path d="M15.5585 2.27881H13.9752C12.1585 2.27881 11.2002 3.23714 11.2002 5.05381V6.63714C11.2002 8.45381 12.1585 9.41214 13.9752 9.41214H15.5585C17.3752 9.41214 18.3335 8.45381 18.3335 6.63714V5.05381C18.3335 3.23714 17.3752 2.27881 15.5585 2.27881Z" fill="#1E74FF"/>
<path d="M15.5585 11.8042H13.9752C12.1585 11.8042 11.2002 12.7625 11.2002 14.5792V16.1625C11.2002 17.9792 12.1585 18.9375 13.9752 18.9375H15.5585C17.3752 18.9375 18.3335 17.9792 18.3335 16.1625V14.5792C18.3335 12.7625 17.3752 11.8042 15.5585 11.8042Z" fill="#1E74FF"/>
<path d="M6.03317 11.8042H4.44984C2.62484 11.8042 1.6665 12.7625 1.6665 14.5792V16.1625C1.6665 17.9875 2.62484 18.9459 4.4415 18.9459H6.02484C7.8415 18.9459 8.79984 17.9875 8.79984 16.1709V14.5875C8.80817 12.7625 7.84984 11.8042 6.03317 11.8042Z" fill="#1E74FF"/>
</svg>
