<svg width="14" height="14" viewBox="0 0 14 14" fill="none" xmlns="http://www.w3.org/2000/svg">
<path d="M8.85662 7.40092C9.11634 7.40092 9.32688 7.19038 9.32688 6.93066C9.32688 6.67095 9.11634 6.46041 8.85662 6.46041L8.85662 7.40092ZM1.80615 6.59814C1.6225 6.78179 1.6225 7.07954 1.80615 7.26318L4.79884 10.2559C4.98249 10.4395 5.28024 10.4395 5.46389 10.2559C5.64753 10.0722 5.64753 9.77448 5.46389 9.59084L2.80371 6.93066L5.46389 4.27049C5.64753 4.08684 5.64753 3.7891 5.46389 3.60545C5.28024 3.4218 4.98249 3.4218 4.79884 3.60545L1.80615 6.59814ZM8.85662 6.46041L2.13867 6.46041L2.13867 7.40092L8.85662 7.40092L8.85662 6.46041Z" fill="#FF6161"/>
<path d="M6.84082 4.5798V3.908C6.84082 2.98045 7.59275 2.22852 8.52031 2.22852H9.8639C10.7915 2.22852 11.5434 2.98045 11.5434 3.908V9.95416C11.5434 10.8817 10.7915 11.6336 9.8639 11.6336H8.52031C7.59275 11.6336 6.84082 10.8817 6.84082 9.95416V9.61826" stroke="#FF6161" stroke-width="1.00769" stroke-linecap="round"/>
</svg>
