<svg width="24" height="25" viewBox="0 0 24 25" fill="none" xmlns="http://www.w3.org/2000/svg">
<path d="M16.8 2.6123H14.2C11 2.6123 9 4.6123 9 7.8123V11.8623H15.25C15.66 11.8623 16 12.2023 16 12.6123C16 13.0223 15.66 13.3623 15.25 13.3623H9V17.4123C9 20.6123 11 22.6123 14.2 22.6123H16.79C19.99 22.6123 21.99 20.6123 21.99 17.4123V7.8123C22 4.6123 20 2.6123 16.8 2.6123Z" fill="#FF0000"/>
<path d="M4.55994 11.8621L6.62994 9.79215C6.77994 9.64215 6.84994 9.45215 6.84994 9.26215C6.84994 9.07215 6.77994 8.87215 6.62994 8.73215C6.33994 8.44215 5.85994 8.44215 5.56994 8.73215L2.21994 12.0821C1.92994 12.3721 1.92994 12.8521 2.21994 13.1421L5.56994 16.4921C5.85994 16.7821 6.33994 16.7821 6.62994 16.4921C6.91994 16.2021 6.91994 15.7221 6.62994 15.4321L4.55994 13.3621H8.99994V11.8621H4.55994Z" fill="#FF0000"/>
</svg>
