<svg width="25" height="25" viewBox="0 0 25 25" fill="none" xmlns="http://www.w3.org/2000/svg">
<path d="M12.5209 3.03125C9.07295 3.03125 6.27086 5.83333 6.27086 9.28125V12.2917C6.27086 12.9271 6.00003 13.8958 5.67711 14.4375L4.4792 16.4271C3.73961 17.6563 4.25003 19.0208 5.6042 19.4792C10.0938 20.9792 14.9375 20.9792 19.4271 19.4792C20.6875 19.0625 21.2396 17.5729 20.5521 16.4271L19.3542 14.4375C19.0417 13.8958 18.7709 12.9271 18.7709 12.2917V9.28125C18.7709 5.84375 15.9584 3.03125 12.5209 3.03125Z" stroke="#292D32" stroke-width="1.5" stroke-miterlimit="10" stroke-linecap="round"/>
<path d="M14.4479 3.3335C14.125 3.23975 13.7917 3.16683 13.4479 3.12516C12.4479 3.00016 11.4896 3.07308 10.5938 3.3335C10.8958 2.56266 11.6458 2.021 12.5208 2.021C13.3958 2.021 14.1458 2.56266 14.4479 3.3335Z" stroke="#292D32" stroke-width="1.5" stroke-miterlimit="10" stroke-linecap="round" stroke-linejoin="round"/>
<path d="M15.646 19.854C15.646 21.5728 14.2397 22.979 12.521 22.979C11.6668 22.979 10.8752 22.6248 10.3127 22.0623C9.75016 21.4998 9.396 20.7082 9.396 19.854" stroke="#292D32" stroke-width="1.5" stroke-miterlimit="10"/>
</svg>
