<svg width="20" height="21" viewBox="0 0 20 21" fill="none" xmlns="http://www.w3.org/2000/svg">
<path d="M14.6084 7.08714C14.55 7.07881 14.4917 7.07881 14.4334 7.08714C13.1417 7.04548 12.1167 5.98714 12.1167 4.68714C12.1167 3.36214 13.1917 2.27881 14.525 2.27881C15.85 2.27881 16.9334 3.35381 16.9334 4.68714C16.925 5.98714 15.9 7.04548 14.6084 7.08714Z" fill="#BCBCBC"/>
<path d="M17.3252 12.8622C16.3918 13.4872 15.0835 13.7205 13.8752 13.5622C14.1918 12.8788 14.3585 12.1205 14.3668 11.3205C14.3668 10.4872 14.1835 9.69549 13.8335 9.00382C15.0668 8.83715 16.3752 9.07049 17.3168 9.69549C18.6335 10.5622 18.6335 11.9872 17.3252 12.8622Z" fill="#BCBCBC"/>
<path d="M5.36647 7.08714C5.4248 7.07881 5.48314 7.07881 5.54147 7.08714C6.83314 7.04548 7.85814 5.98714 7.85814 4.68714C7.85814 3.35381 6.78314 2.27881 5.4498 2.27881C4.1248 2.27881 3.0498 3.35381 3.0498 4.68714C3.0498 5.98714 4.0748 7.04548 5.36647 7.08714Z" fill="#BCBCBC"/>
<path d="M5.45843 11.3206C5.45843 12.129 5.63343 12.8956 5.9501 13.5873C4.7751 13.7123 3.5501 13.4623 2.6501 12.8706C1.33343 11.9956 1.33343 10.5706 2.6501 9.69564C3.54176 9.09564 4.8001 8.85398 5.98343 8.98731C5.64176 9.68731 5.45843 10.479 5.45843 11.3206Z" fill="#BCBCBC"/>
<path d="M10.1 13.8373C10.0333 13.829 9.95833 13.829 9.88333 13.8373C8.35 13.7873 7.125 12.529 7.125 10.979C7.13333 9.39564 8.40833 8.1123 10 8.1123C11.5833 8.1123 12.8667 9.39564 12.8667 10.979C12.8583 12.529 11.6417 13.7873 10.1 13.8373Z" fill="#BCBCBC"/>
<path d="M7.3915 15.5625C6.13317 16.4042 6.13317 17.7875 7.3915 18.6208C8.82484 19.5792 11.1748 19.5792 12.6082 18.6208C13.8665 17.7792 13.8665 16.3958 12.6082 15.5625C11.1832 14.6042 8.83317 14.6042 7.3915 15.5625Z" fill="#BCBCBC"/>
</svg>
