<svg width="20" height="21" viewBox="0 0 20 21" fill="none" xmlns="http://www.w3.org/2000/svg">
<path d="M7.49984 2.27881C5.3165 2.27881 3.5415 4.05381 3.5415 6.23714C3.5415 8.37881 5.2165 10.1121 7.39984 10.1871C7.4665 10.1788 7.53317 10.1788 7.58317 10.1871C7.59984 10.1871 7.60817 10.1871 7.62484 10.1871C7.63317 10.1871 7.63317 10.1871 7.6415 10.1871C9.77484 10.1121 11.4498 8.37881 11.4582 6.23714C11.4582 4.05381 9.68317 2.27881 7.49984 2.27881Z" fill="#BCBCBC"/>
<path d="M11.7333 12.4042C9.4083 10.8542 5.61663 10.8542 3.27497 12.4042C2.21663 13.1125 1.6333 14.0709 1.6333 15.0959C1.6333 16.1209 2.21663 17.0709 3.26663 17.7709C4.4333 18.5542 5.96663 18.9459 7.49997 18.9459C9.0333 18.9459 10.5666 18.5542 11.7333 17.7709C12.7833 17.0625 13.3666 16.1125 13.3666 15.0792C13.3583 14.0542 12.7833 13.1042 11.7333 12.4042Z" fill="#BCBCBC"/>
<path d="M16.6583 6.72889C16.7916 8.34556 15.6416 9.76222 14.05 9.95389C14.0416 9.95389 14.0416 9.95389 14.0333 9.95389H14.0083C13.9583 9.95389 13.9083 9.95389 13.8666 9.97056C13.0583 10.0122 12.3166 9.75389 11.7583 9.27889C12.6166 8.51222 13.1083 7.36222 13.0083 6.11222C12.95 5.43722 12.7166 4.82056 12.3666 4.29556C12.6833 4.13723 13.05 4.03723 13.425 4.00389C15.0583 3.86223 16.5166 5.07889 16.6583 6.72889Z" fill="#BCBCBC"/>
<path d="M18.3249 14.4375C18.2582 15.2458 17.7415 15.9458 16.8749 16.4208C16.0415 16.8791 14.9915 17.0958 13.9499 17.0708C14.5499 16.5291 14.8999 15.8541 14.9665 15.1375C15.0499 14.1041 14.5582 13.1125 13.5749 12.3208C13.0165 11.8791 12.3665 11.5291 11.6582 11.2708C13.4999 10.7375 15.8165 11.0958 17.2415 12.2458C18.0082 12.8625 18.3999 13.6375 18.3249 14.4375Z" fill="#BCBCBC"/>
</svg>
