<svg width="20" height="21" viewBox="0 0 20 21" fill="none" xmlns="http://www.w3.org/2000/svg">
<path d="M16.7498 8.29567C15.2415 8.29567 14.6248 7.229 15.3748 5.92067C15.8082 5.16233 15.5498 4.19567 14.7915 3.76233L13.3498 2.93733C12.6915 2.54567 11.8415 2.779 11.4498 3.43733L11.3582 3.59567C10.6082 4.904 9.37484 4.904 8.6165 3.59567L8.52484 3.43733C8.14984 2.779 7.29984 2.54567 6.6415 2.93733L5.19984 3.76233C4.4415 4.19567 4.18317 5.17067 4.6165 5.929C5.37484 7.229 4.75817 8.29567 3.24984 8.29567C2.38317 8.29567 1.6665 9.004 1.6665 9.879V11.3457C1.6665 12.2123 2.37484 12.929 3.24984 12.929C4.75817 12.929 5.37484 13.9957 4.6165 15.304C4.18317 16.0623 4.4415 17.029 5.19984 17.4623L6.6415 18.2873C7.29984 18.679 8.14984 18.4457 8.5415 17.7873L8.63317 17.629C9.38317 16.3207 10.6165 16.3207 11.3748 17.629L11.4665 17.7873C11.8582 18.4457 12.7082 18.679 13.3665 18.2873L14.8082 17.4623C15.5665 17.029 15.8248 16.054 15.3915 15.304C14.6332 13.9957 15.2498 12.929 16.7582 12.929C17.6248 12.929 18.3415 12.2207 18.3415 11.3457V9.879C18.3332 9.01233 17.6248 8.29567 16.7498 8.29567ZM9.99984 13.3207C8.50817 13.3207 7.2915 12.104 7.2915 10.6123C7.2915 9.12067 8.50817 7.904 9.99984 7.904C11.4915 7.904 12.7082 9.12067 12.7082 10.6123C12.7082 12.104 11.4915 13.3207 9.99984 13.3207Z" fill="#BCBCBC"/>
</svg>
